<svg id="visual" viewBox="0 0 600 900" width="600" height="900" xmlns="http://www.w3.org/2000/svg" xmlns:xlink="http://www.w3.org/1999/xlink" version="1.1"><rect width="600" height="900" fill="#001122"></rect><g><g transform="translate(525 813)"><path d="M0 -60L51.9 -30L51.9 30L0 60L-51.9 30L-51.9 -30Z" fill="#008568"></path></g><g transform="translate(357 573)"><path d="M0 -39L33.8 -19.5L33.8 19.5L0 39L-33.8 19.5L-33.8 -19.5Z" fill="#008568"></path></g><g transform="translate(180 391)"><path d="M0 -46L39.8 -23L39.8 23L0 46L-39.8 23L-39.8 -23Z" fill="#008568"></path></g><g transform="translate(180 165)"><path d="M0 -52L45 -26L45 26L0 52L-45 26L-45 -26Z" fill="#008568"></path></g><g transform="translate(102 52)"><path d="M0 -45L39 -22.5L39 22.5L0 45L-39 22.5L-39 -22.5Z" fill="#008568"></path></g><g transform="translate(376 198)"><path d="M0 -35L30.3 -17.5L30.3 17.5L0 35L-30.3 17.5L-30.3 -17.5Z" fill="#008568"></path></g><g transform="translate(257 297)"><path d="M0 -58L50.2 -29L50.2 29L0 58L-50.2 29L-50.2 -29Z" fill="#008568"></path></g><g transform="translate(496 456)"><path d="M0 -45L39 -22.5L39 22.5L0 45L-39 22.5L-39 -22.5Z" fill="#008568"></path></g><g transform="translate(294 52)"><path d="M0 -52L45 -26L45 26L0 52L-45 26L-45 -26Z" fill="#008568"></path></g></g></svg>