<svg id="visual" viewBox="0 0 540 960" width="540" height="960" xmlns="http://www.w3.org/2000/svg" xmlns:xlink="http://www.w3.org/1999/xlink" version="1.1"><rect width="540" height="960" fill="#001122"></rect><g><g transform="translate(281 185)"><path d="M0 -53.1L46 -26.6L46 26.6L0 53.1L-46 26.6L-46 -26.6Z" fill="#009473"></path></g><g transform="translate(393 342)"><path d="M0 -38L32.9 -19L32.9 19L0 38L-32.9 19L-32.9 -19Z" fill="#009473"></path></g><g transform="translate(65 677)"><path d="M0 -51L44.2 -25.5L44.2 25.5L0 51L-44.2 25.5L-44.2 -25.5Z" fill="#009473"></path></g><g transform="translate(170 456)"><path d="M0 -47L40.7 -23.5L40.7 23.5L0 47L-40.7 23.5L-40.7 -23.5Z" fill="#009473"></path></g><g transform="translate(66 7)"><path d="M0 -52L45 -26L45 26L0 52L-45 26L-45 -26Z" fill="#009473"></path></g><g transform="translate(457 824)"><path d="M0 -34L29.4 -17L29.4 17L0 34L-29.4 17L-29.4 -17Z" fill="#009473"></path></g><g transform="translate(519 642)"><path d="M0 -47L40.7 -23.5L40.7 23.5L0 47L-40.7 23.5L-40.7 -23.5Z" fill="#009473"></path></g><g transform="translate(12 463)"><path d="M0 -31L26.8 -15.5L26.8 15.5L0 31L-26.8 15.5L-26.8 -15.5Z" fill="#009473"></path></g><g transform="translate(263 780)"><path d="M0 -26L22.5 -13L22.5 13L0 26L-22.5 13L-22.5 -13Z" fill="#009473"></path></g><g transform="translate(203 685)"><path d="M0 -28L24.2 -14L24.2 14L0 28L-24.2 14L-24.2 -14Z" fill="#009473"></path></g><g transform="translate(383 493)"><path d="M0 -51L44.2 -25.5L44.2 25.5L0 51L-44.2 25.5L-44.2 -25.5Z" fill="#009473"></path></g></g></svg>